<?xml version="1.0" standalone="no"?>
<!DOCTYPE svg PUBLIC "-//W3C//DTD SVG 20010904//EN"
 "http://www.w3.org/TR/2001/REC-SVG-20010904/DTD/svg10.dtd">
<svg version="1.0" xmlns="http://www.w3.org/2000/svg"
 width="924.000000pt" height="1032.000000pt" viewBox="0 0 924.000000 1032.000000"
 preserveAspectRatio="xMidYMid meet">

<g transform="translate(0.000000,1032.000000) scale(0.100000,-0.100000)"
fill="#000000" stroke="none">
<path d="M1825 10010 c-290 -30 -590 -141 -844 -312 -152 -103 -352 -305 -454
-458 -260 -393 -356 -804 -296 -1265 35 -259 149 -548 309 -776 100 -144 312
-353 450 -445 232 -154 477 -251 739 -290 52 -8 97 -17 99 -19 3 -3 -57 -672
-133 -1487 -75 -816 -142 -1537 -148 -1603 -5 -66 -13 -123 -16 -127 -4 -4
-47 -15 -96 -23 -290 -50 -567 -192 -775 -398 -206 -203 -347 -466 -412 -767
-28 -130 -30 -374 -4 -515 78 -432 337 -806 703 -1015 559 -320 1252 -243
1718 192 122 113 206 224 299 391 l38 67 1594 -2 1595 -3 30 -90 c137 -411
466 -743 869 -879 177 -59 253 -71 455 -71 152 0 196 4 285 23 560 125 975
552 1086 1118 27 134 24 387 -4 521 -89 415 -335 747 -702 951 -52 28 -130 64
-172 80 l-78 27 3 1810 2 1809 70 17 c540 128 865 695 699 1222 -187 592 -849
860 -1394 565 -164 -89 -303 -229 -384 -385 -9 -18 -24 -33 -34 -33 -10 0
-328 72 -707 159 -380 88 -1086 250 -1570 361 -484 111 -883 207 -886 213 -4
5 -12 37 -19 70 -32 166 -152 435 -268 602 -78 113 -231 279 -336 364 -257
209 -555 340 -881 390 -103 15 -327 21 -430 11z m450 -345 c397 -71 771 -330
985 -680 139 -228 210 -486 210 -767 0 -408 -156 -770 -456 -1058 -364 -350
-883 -481 -1389 -351 -201 51 -408 162 -578 308 -218 187 -387 459 -458 737
-131 513 14 1041 387 1409 229 225 494 359 823 412 108 18 350 13 476 -10z
m3015 -1780 c806 -185 1484 -341 1507 -347 l42 -10 -1 -117 c0 -72 6 -142 16
-184 9 -38 16 -77 16 -88 0 -12 -265 -310 -671 -757 -369 -405 -684 -750 -699
-766 l-28 -29 -94 46 c-112 54 -197 81 -308 98 -139 20 -342 -1 -468 -49 l-49
-19 -579 705 c-319 388 -580 710 -582 716 -1 6 16 36 39 66 151 202 247 405
313 665 24 94 46 258 46 341 0 67 2 75 18 70 9 -3 676 -156 1482 -341z m2720
145 c175 -61 299 -171 381 -335 186 -376 -32 -828 -445 -920 -60 -13 -104 -16
-180 -12 -172 9 -297 66 -422 192 -101 103 -156 206 -179 339 -8 49 -15 106
-15 128 0 72 31 192 72 278 77 160 250 300 426 345 88 22 279 14 362 -15z
m-4275 -1860 c285 -349 524 -642 532 -652 13 -15 8 -23 -48 -80 -83 -83 -171
-221 -214 -333 -45 -119 -53 -152 -63 -268 -22 -234 40 -473 169 -657 l43 -61
-30 -28 c-16 -15 -337 -315 -713 -666 -488 -455 -687 -636 -696 -629 -7 5 -46
38 -86 73 -182 159 -436 284 -664 326 -124 23 -116 19 -110 62 3 21 71 729
150 1573 80 844 147 1554 150 1576 l6 42 62 7 c301 34 628 167 868 354 l73 57
26 -30 c15 -17 260 -317 545 -666z m3377 567 c152 -153 263 -213 526 -283 9
-3 12 -367 12 -1777 l0 -1774 -132 -7 c-202 -11 -366 -46 -527 -115 -41 -17
-77 -28 -80 -23 -5 7 -1072 1206 -1169 1314 l-34 37 37 48 c50 65 129 231 155
324 43 159 43 365 0 526 -26 96 -89 230 -146 309 l-45 65 48 52 c694 760 1267
1387 1269 1387 2 0 40 -38 86 -83z m-2004 -1333 c179 -45 351 -183 430 -344
60 -122 77 -194 77 -325 0 -94 -5 -123 -29 -199 -89 -273 -330 -457 -616 -473
-210 -11 -390 62 -536 220 -71 77 -111 143 -143 235 -86 252 -24 520 165 707
109 108 234 172 376 194 76 11 198 5 276 -15z m-679 -1523 c79 -57 270 -118
412 -131 183 -18 360 15 528 98 53 25 98 47 101 47 3 0 219 -238 480 -530 261
-291 525 -587 587 -656 l112 -126 -92 -94 c-174 -178 -297 -388 -356 -609 -28
-105 -51 -252 -51 -332 l0 -68 -1521 0 -1520 0 8 58 c15 109 9 409 -11 507
-25 122 -77 270 -137 388 l-49 97 68 64 c37 34 256 238 487 453 231 214 532
494 669 621 137 128 251 232 254 232 2 0 16 -9 31 -19z m-2499 -1000 c221 -50
406 -156 571 -327 475 -494 401 -1295 -157 -1706 -376 -275 -932 -280 -1312
-11 -87 61 -211 181 -272 263 -194 262 -267 641 -184 950 60 220 150 375 306
529 176 174 408 289 648 321 97 13 302 3 400 -19z m5885 -335 c302 -79 553
-283 691 -561 30 -60 66 -155 82 -210 25 -92 27 -115 27 -275 0 -161 -3 -183
-28 -273 -53 -186 -135 -332 -261 -464 -209 -220 -480 -337 -786 -338 -408 -1
-774 226 -960 595 -80 160 -114 305 -113 495 0 143 19 240 74 380 120 308 382
549 696 640 134 39 176 44 333 40 116 -2 165 -8 245 -29z"/>
</g>
</svg>
